<svg xmlns="http://www.w3.org/2000/svg" width="1050" height="740" viewBox="0 0 1050 740">
<rect width="100%" height="100%" fill="#ffffff"/>
<text x="525.0" y="36" text-anchor="middle" font-family="Arial" font-size="24" font-weight="700" fill="#172033">Masked-term recovery accuracy by linguistic construction</text>
<text x="268" y="90" text-anchor="end" font-family="Arial" font-size="14" fill="#172033">Meme Expression (n=1 terms)</text>
<rect x="280" y="75" width="720" height="22" rx="3" fill="#eef2f7"/>
<rect x="280" y="75" width="180.0" height="22" rx="3" fill="#0f766e"/>
<text x="468.0" y="91" font-family="Arial" font-size="13" fill="#172033">25.0%</text>
<text x="268" y="132" text-anchor="end" font-family="Arial" font-size="14" fill="#172033">Borrowing (n=3 terms)</text>
<rect x="280" y="117" width="720" height="22" rx="3" fill="#eef2f7"/>
<rect x="280" y="117" width="229.0909090909091" height="22" rx="3" fill="#0f766e"/>
<text x="517.0909090909091" y="133" font-family="Arial" font-size="13" fill="#172033">31.8%</text>
<text x="268" y="174" text-anchor="end" font-family="Arial" font-size="14" fill="#172033">Functional Shift (n=3 terms)</text>
<rect x="280" y="159" width="720" height="22" rx="3" fill="#eef2f7"/>
<rect x="280" y="159" width="240.0" height="22" rx="3" fill="#0f766e"/>
<text x="528.0" y="175" font-family="Arial" font-size="13" fill="#172033">33.3%</text>
<text x="268" y="216" text-anchor="end" font-family="Arial" font-size="14" fill="#172033">Clipping (n=4 terms)</text>
<rect x="280" y="201" width="720" height="22" rx="3" fill="#eef2f7"/>
<rect x="280" y="201" width="248.27586206896552" height="22" rx="3" fill="#0f766e"/>
<text x="536.2758620689656" y="217" font-family="Arial" font-size="13" fill="#172033">34.5%</text>
<text x="268" y="258" text-anchor="end" font-family="Arial" font-size="14" fill="#172033">Semantic Shift (n=5 terms)</text>
<rect x="280" y="243" width="720" height="22" rx="3" fill="#eef2f7"/>
<rect x="280" y="243" width="258.46153846153845" height="22" rx="3" fill="#0f766e"/>
<text x="546.4615384615385" y="259" font-family="Arial" font-size="13" fill="#172033">35.9%</text>
<text x="268" y="300" text-anchor="end" font-family="Arial" font-size="14" fill="#172033">Multiword Expression (n=8 terms)</text>
<rect x="280" y="285" width="720" height="22" rx="3" fill="#eef2f7"/>
<rect x="280" y="285" width="300.0" height="22" rx="3" fill="#0f766e"/>
<text x="588.0" y="301" font-family="Arial" font-size="13" fill="#172033">41.7%</text>
<text x="268" y="342" text-anchor="end" font-family="Arial" font-size="14" fill="#172033">Initialism (n=19 terms)</text>
<rect x="280" y="327" width="720" height="22" rx="3" fill="#eef2f7"/>
<rect x="280" y="327" width="300.82191780821915" height="22" rx="3" fill="#0f766e"/>
<text x="588.8219178082192" y="343" font-family="Arial" font-size="13" fill="#172033">41.8%</text>
<text x="268" y="384" text-anchor="end" font-family="Arial" font-size="14" fill="#172033">Blending (n=11 terms)</text>
<rect x="280" y="369" width="720" height="22" rx="3" fill="#eef2f7"/>
<rect x="280" y="369" width="305.75342465753425" height="22" rx="3" fill="#0f766e"/>
<text x="593.7534246575342" y="385" font-family="Arial" font-size="13" fill="#172033">42.5%</text>
<text x="268" y="426" text-anchor="end" font-family="Arial" font-size="14" fill="#172033">Abbreviation (n=4 terms)</text>
<rect x="280" y="411" width="720" height="22" rx="3" fill="#eef2f7"/>
<rect x="280" y="411" width="315.0" height="22" rx="3" fill="#0f766e"/>
<text x="603.0" y="427" font-family="Arial" font-size="13" fill="#172033">43.8%</text>
<text x="268" y="468" text-anchor="end" font-family="Arial" font-size="14" fill="#172033">Compound (n=29 terms)</text>
<rect x="280" y="453" width="720" height="22" rx="3" fill="#eef2f7"/>
<rect x="280" y="453" width="349.5145631067961" height="22" rx="3" fill="#0f766e"/>
<text x="637.5145631067961" y="469" font-family="Arial" font-size="13" fill="#172033">48.5%</text>
<text x="268" y="510" text-anchor="end" font-family="Arial" font-size="14" fill="#172033">Metaphor (n=74 terms)</text>
<rect x="280" y="495" width="720" height="22" rx="3" fill="#eef2f7"/>
<rect x="280" y="495" width="384.0867992766727" height="22" rx="3" fill="#0f766e"/>
<text x="672.0867992766728" y="511" font-family="Arial" font-size="13" fill="#172033">53.3%</text>
<text x="268" y="552" text-anchor="end" font-family="Arial" font-size="14" fill="#172033">Affixation (n=12 terms)</text>
<rect x="280" y="537" width="720" height="22" rx="3" fill="#eef2f7"/>
<rect x="280" y="537" width="426.66666666666663" height="22" rx="3" fill="#0f766e"/>
<text x="714.6666666666666" y="553" font-family="Arial" font-size="13" fill="#172033">59.3%</text>
<text x="268" y="594" text-anchor="end" font-family="Arial" font-size="14" fill="#172033">Community-specific Jargon (n=1 terms)</text>
<rect x="280" y="579" width="720" height="22" rx="3" fill="#eef2f7"/>
<rect x="280" y="579" width="450.0" height="22" rx="3" fill="#0f766e"/>
<text x="738.0" y="595" font-family="Arial" font-size="13" fill="#172033">62.5%</text>
<text x="268" y="636" text-anchor="end" font-family="Arial" font-size="14" fill="#172033">Acronym (n=6 terms)</text>
<rect x="280" y="621" width="720" height="22" rx="3" fill="#eef2f7"/>
<rect x="280" y="621" width="516.5217391304348" height="22" rx="3" fill="#0f766e"/>
<text x="804.5217391304348" y="637" font-family="Arial" font-size="13" fill="#172033">71.7%</text>
<text x="268" y="678" text-anchor="end" font-family="Arial" font-size="14" fill="#172033">Code Word (n=1 terms)</text>
<rect x="280" y="663" width="720" height="22" rx="3" fill="#eef2f7"/>
<rect x="280" y="663" width="540.0" height="22" rx="3" fill="#0f766e"/>
<text x="828.0" y="679" font-family="Arial" font-size="13" fill="#172033">75.0%</text>
</svg>